<?xml version="1.0" encoding="UTF-8"?>
<svg width="752pt" height="752pt" version="1.1" viewBox="0 0 752 752" xmlns="http://www.w3.org/2000/svg">
 <path d="m166.89 224.46c-1.4531 0.20703-2.7227 1.0742-3.4492 2.3477-0.72266 1.2734-0.81641 2.8086-0.25 4.1641l56.09 145.03-56.09 145.04c-0.71484 1.7461-0.32031 3.7461 0.99609 5.0977 1.3164 1.3477 3.3086 1.7891 5.0703 1.1172l416.75-146.81c1.8555-0.69141 3.0898-2.4609 3.0898-4.4414 0-1.9766-1.2344-3.75-3.0898-4.4375l-416.75-146.81c-0.75-0.29688-1.5664-0.39844-2.3672-0.29297zm8.8789 12.578 380.94 134.23h-328.99zm51.945 143.7h328.99l-380.94 134.23z"/>
</svg>